<svg width="360" height="640" viewBox="0 0 360 640" fill="none" xmlns="http://www.w3.org/2000/svg">
<rect width="360" height="640" fill="white"/>
<rect width="58.4893" height="37.4634" rx="8" transform="matrix(0.987533 -0.157412 0.168574 0.985689 256 315.31)" fill="black"/>
<rect width="56.9953" height="8.87888" rx="4.43944" transform="matrix(0.856395 -0.516321 0.535932 0.844261 257.149 317.428)" fill="black"/>
<path d="M46.5689 334.78H47.3789C47.8189 334.78 48.1189 334.7 48.2789 334.54C48.4589 334.36 48.5489 334.08 48.5489 333.7V319.84H45.7889C45.3889 319.84 45.0989 319.93 44.9189 320.11C44.7389 320.27 44.6489 320.54 44.6489 320.92V321.88H42.2789V317.62H57.9689V321.88H55.5989V320.92C55.5989 320.52 55.5089 320.24 55.3289 320.08C55.1689 319.92 54.8789 319.84 54.4589 319.84H51.7289V333.7C51.7289 334.08 51.8089 334.36 51.9689 334.54C52.1489 334.7 52.4589 334.78 52.8989 334.78H53.7089V337H46.5689V334.78ZM59.2195 334.78H59.9695C60.3695 334.78 60.6495 334.7 60.8095 334.54C60.9895 334.36 61.0795 334.07 61.0795 333.67V320.47C61.0795 320.09 60.9895 319.81 60.8095 319.63C60.6495 319.45 60.3695 319.36 59.9695 319.36H59.3695V317.14H63.9895V324.1C64.7095 323.38 65.4395 322.88 66.1795 322.6C66.9395 322.3 67.8895 322.15 69.0295 322.15C70.5895 322.15 71.7595 322.58 72.5395 323.44C73.3395 324.3 73.7395 325.53 73.7395 327.13V333.67C73.7395 334.07 73.8195 334.36 73.9795 334.54C74.1595 334.7 74.4395 334.78 74.8195 334.78H75.6595V337H70.4695V327.16C70.4695 326.16 70.2495 325.43 69.8095 324.97C69.3695 324.51 68.6995 324.28 67.7995 324.28C66.7795 324.28 65.9395 324.58 65.2795 325.18C64.6195 325.76 64.2895 326.57 64.2895 327.61V333.67C64.2895 334.07 64.3595 334.36 64.4995 334.54C64.6595 334.7 64.9195 334.78 65.2795 334.78H66.0895V337H59.2195V334.78ZM84.855 337.45C82.575 337.45 80.745 336.82 79.365 335.56C78.005 334.28 77.325 332.42 77.325 329.98C77.325 327.38 77.955 325.43 79.215 324.13C80.495 322.81 82.305 322.15 84.645 322.15C86.905 322.15 88.615 322.79 89.775 324.07C90.935 325.35 91.515 327.08 91.515 329.26V330.64H80.505C80.505 332.26 80.895 333.46 81.675 334.24C82.475 335 83.545 335.38 84.885 335.38C85.645 335.38 86.285 335.33 86.805 335.23C87.325 335.11 87.795 334.92 88.215 334.66V333.58H91.005V335.68C90.165 336.28 89.255 336.72 88.275 337C87.315 337.3 86.175 337.45 84.855 337.45ZM88.425 328.69C88.425 325.77 87.155 324.31 84.615 324.31C83.275 324.31 82.255 324.7 81.555 325.48C80.855 326.26 80.505 327.33 80.505 328.69H88.425ZM103.985 334.81H104.855C105.255 334.81 105.535 334.72 105.695 334.54C105.875 334.36 105.965 334.07 105.965 333.67V320.89C105.965 320.51 105.875 320.24 105.695 320.08C105.535 319.9 105.255 319.81 104.855 319.81H103.985V317.59H114.065C115.785 317.59 117.105 318.04 118.025 318.94C118.945 319.84 119.405 321.11 119.405 322.75C119.405 323.73 119.175 324.61 118.715 325.39C118.255 326.15 117.585 326.73 116.705 327.13C117.705 327.47 118.455 328.03 118.955 328.81C119.475 329.57 119.735 330.51 119.735 331.63C119.735 333.19 119.275 334.48 118.355 335.5C117.435 336.5 116.165 337 114.545 337H103.985V334.81ZM113.015 326.11C114.035 326.11 114.835 325.83 115.415 325.27C115.995 324.71 116.285 323.92 116.285 322.9C116.285 321.84 116.035 321.06 115.535 320.56C115.055 320.04 114.265 319.78 113.165 319.78H109.145V326.11H113.015ZM113.675 334.81C114.595 334.81 115.315 334.54 115.835 334C116.355 333.44 116.615 332.62 116.615 331.54C116.615 330.42 116.335 329.61 115.775 329.11C115.215 328.61 114.355 328.36 113.195 328.36H109.145V334.81H113.675ZM129.24 337.45C126.96 337.45 125.13 336.82 123.75 335.56C122.39 334.28 121.71 332.42 121.71 329.98C121.71 327.38 122.34 325.43 123.6 324.13C124.88 322.81 126.69 322.15 129.03 322.15C131.29 322.15 133 322.79 134.16 324.07C135.32 325.35 135.9 327.08 135.9 329.26V330.64H124.89C124.89 332.26 125.28 333.46 126.06 334.24C126.86 335 127.93 335.38 129.27 335.38C130.03 335.38 130.67 335.33 131.19 335.23C131.71 335.11 132.18 334.92 132.6 334.66V333.58H135.39V335.68C134.55 336.28 133.64 336.72 132.66 337C131.7 337.3 130.56 337.45 129.24 337.45ZM132.81 328.69C132.81 325.77 131.54 324.31 129 324.31C127.66 324.31 126.64 324.7 125.94 325.48C125.24 326.26 124.89 327.33 124.89 328.69H132.81ZM143.15 337.45C140.73 337.45 138.72 336.87 137.12 335.71V333.37H140.06V334.57C140.88 335.05 141.88 335.29 143.06 335.29C143.96 335.29 144.63 335.15 145.07 334.87C145.53 334.59 145.76 334.13 145.76 333.49C145.76 333.07 145.64 332.73 145.4 332.47C145.18 332.19 144.87 331.96 144.47 331.78C144.07 331.58 143.28 331.24 142.1 330.76C140.92 330.28 140.01 329.87 139.37 329.53C138.75 329.17 138.24 328.72 137.84 328.18C137.46 327.64 137.27 326.96 137.27 326.14C137.27 324.82 137.78 323.83 138.8 323.17C139.82 322.49 141.21 322.15 142.97 322.15C144.09 322.15 145.14 322.3 146.12 322.6C147.1 322.88 147.95 323.29 148.67 323.83V326.08H145.79V324.97C145.07 324.53 144.21 324.31 143.21 324.31C142.31 324.31 141.63 324.45 141.17 324.73C140.73 325.01 140.51 325.48 140.51 326.14C140.51 326.74 140.75 327.21 141.23 327.55C141.71 327.87 142.45 328.21 143.45 328.57C143.73 328.65 144.04 328.76 144.38 328.9C145.42 329.3 146.25 329.67 146.87 330.01C147.49 330.35 148 330.8 148.4 331.36C148.8 331.92 149 332.63 149 333.49C149 334.77 148.51 335.75 147.53 336.43C146.57 337.11 145.11 337.45 143.15 337.45ZM157.588 337.45C155.928 337.45 154.678 337.04 153.838 336.22C152.998 335.4 152.578 334.2 152.578 332.62V324.76H150.238V322.6H152.578V319.36L155.758 318.34V322.6H160.078V324.76H155.758V332.83C155.758 333.71 155.918 334.34 156.238 334.72C156.578 335.1 157.088 335.29 157.768 335.29C158.648 335.29 159.318 335.1 159.778 334.72V333.43H162.508V335.71C161.848 336.27 161.128 336.7 160.348 337C159.568 337.3 158.648 337.45 157.588 337.45ZM174.063 334.81H174.933C175.333 334.81 175.613 334.72 175.773 334.54C175.953 334.36 176.043 334.07 176.043 333.67V320.89C176.043 320.51 175.953 320.24 175.773 320.08C175.613 319.9 175.333 319.81 174.933 319.81H174.063V317.59H188.433V321.46H185.553V320.86C185.553 320.48 185.463 320.21 185.283 320.05C185.103 319.87 184.813 319.78 184.413 319.78H179.223V326.17H184.413V328.39H179.223V333.7C179.223 334.1 179.303 334.39 179.463 334.57C179.643 334.73 179.923 334.81 180.303 334.81H181.203V337H174.063V334.81ZM190.038 317.56H193.428V320.32H190.038V317.56ZM188.148 334.78H189.018C189.418 334.78 189.698 334.69 189.858 334.51C190.038 334.33 190.128 334.04 190.128 333.64V325.93C190.128 325.55 190.038 325.28 189.858 325.12C189.698 324.94 189.418 324.85 189.018 324.85H188.148V322.6H193.338V333.67C193.338 334.05 193.428 334.33 193.608 334.51C193.788 334.69 194.068 334.78 194.448 334.78H195.318V337H188.148V334.78ZM197.003 334.78H197.873C198.273 334.78 198.553 334.69 198.713 334.51C198.893 334.33 198.983 334.04 198.983 333.64V320.47C198.983 320.09 198.893 319.82 198.713 319.66C198.553 319.48 198.273 319.39 197.873 319.39H197.003V317.14H202.193V333.67C202.193 334.05 202.283 334.33 202.463 334.51C202.643 334.69 202.923 334.78 203.303 334.78H204.173V337H197.003V334.78ZM205.85 334.78H206.6C207 334.78 207.28 334.7 207.44 334.54C207.62 334.36 207.71 334.07 207.71 333.67V325.93C207.71 325.55 207.62 325.28 207.44 325.12C207.28 324.94 207 324.85 206.6 324.85H206V322.6H209.75L209.96 324.64C210.5 323.8 211.17 323.18 211.97 322.78C212.79 322.36 213.78 322.15 214.94 322.15C215.82 322.15 216.58 322.35 217.22 322.75C217.86 323.15 218.34 323.72 218.66 324.46C219.16 323.66 219.77 323.08 220.49 322.72C221.23 322.34 222.15 322.15 223.25 322.15C224.89 322.15 226.07 322.56 226.79 323.38C227.53 324.2 227.9 325.43 227.9 327.07V333.67C227.9 334.05 227.99 334.33 228.17 334.51C228.35 334.69 228.63 334.78 229.01 334.78H229.85V337H224.75V327.07C224.75 326.07 224.56 325.36 224.18 324.94C223.8 324.52 223.16 324.31 222.26 324.31C221.34 324.31 220.61 324.57 220.07 325.09C219.55 325.61 219.29 326.37 219.29 327.37V333.67C219.29 334.07 219.36 334.36 219.5 334.54C219.66 334.7 219.93 334.78 220.31 334.78H221.12V337H216.32V327.16C216.32 326.18 216.13 325.46 215.75 325C215.37 324.54 214.77 324.31 213.95 324.31C212.95 324.31 212.18 324.59 211.64 325.15C211.1 325.71 210.83 326.53 210.83 327.61V333.67C210.83 334.07 210.9 334.36 211.04 334.54C211.2 334.7 211.47 334.78 211.85 334.78H212.66V337H205.85V334.78ZM237.574 337.45C235.154 337.45 233.144 336.87 231.544 335.71V333.37H234.484V334.57C235.304 335.05 236.304 335.29 237.484 335.29C238.384 335.29 239.054 335.15 239.494 334.87C239.954 334.59 240.184 334.13 240.184 333.49C240.184 333.07 240.064 332.73 239.824 332.47C239.604 332.19 239.294 331.96 238.894 331.78C238.494 331.58 237.704 331.24 236.524 330.76C235.344 330.28 234.434 329.87 233.794 329.53C233.174 329.17 232.664 328.72 232.264 328.18C231.884 327.64 231.694 326.96 231.694 326.14C231.694 324.82 232.204 323.83 233.224 323.17C234.244 322.49 235.634 322.15 237.394 322.15C238.514 322.15 239.564 322.3 240.544 322.6C241.524 322.88 242.374 323.29 243.094 323.83V326.08H240.214V324.97C239.494 324.53 238.634 324.31 237.634 324.31C236.734 324.31 236.054 324.45 235.594 324.73C235.154 325.01 234.934 325.48 234.934 326.14C234.934 326.74 235.174 327.21 235.654 327.55C236.134 327.87 236.874 328.21 237.874 328.57C238.154 328.65 238.464 328.76 238.804 328.9C239.844 329.3 240.674 329.67 241.294 330.01C241.914 330.35 242.424 330.8 242.824 331.36C243.224 331.92 243.424 332.63 243.424 333.49C243.424 334.77 242.934 335.75 241.954 336.43C240.994 337.11 239.534 337.45 237.574 337.45Z" fill="black"/>
</svg>
