<svg width="360" height="640" viewBox="0 0 360 640" fill="none" xmlns="http://www.w3.org/2000/svg">
<rect width="360" height="640" fill="#EBEBEB"/>
<rect width="58.4893" height="37.4634" rx="8" transform="matrix(0.987533 -0.157412 0.168573 0.985689 266 308.31)" fill="#02233C"/>
<rect width="56.9953" height="8.87889" rx="4.43944" transform="matrix(0.856395 -0.516322 0.535931 0.844262 267.149 310.428)" fill="#02233C"/>
<path d="M56.5689 327.78H57.3789C57.8189 327.78 58.1189 327.7 58.2789 327.54C58.4589 327.36 58.5489 327.08 58.5489 326.7V312.84H55.7889C55.3889 312.84 55.0989 312.93 54.9189 313.11C54.7389 313.27 54.6489 313.54 54.6489 313.92V314.88H52.2789V310.62H67.9689V314.88H65.5989V313.92C65.5989 313.52 65.5089 313.24 65.3289 313.08C65.1689 312.92 64.8789 312.84 64.4589 312.84H61.7289V326.7C61.7289 327.08 61.8089 327.36 61.9689 327.54C62.1489 327.7 62.4589 327.78 62.8989 327.78H63.7089V330H56.5689V327.78ZM69.2195 327.78H69.9695C70.3695 327.78 70.6495 327.7 70.8095 327.54C70.9895 327.36 71.0795 327.07 71.0795 326.67V313.47C71.0795 313.09 70.9895 312.81 70.8095 312.63C70.6495 312.45 70.3695 312.36 69.9695 312.36H69.3695V310.14H73.9895V317.1C74.7095 316.38 75.4395 315.88 76.1795 315.6C76.9395 315.3 77.8895 315.15 79.0295 315.15C80.5895 315.15 81.7595 315.58 82.5395 316.44C83.3395 317.3 83.7395 318.53 83.7395 320.13V326.67C83.7395 327.07 83.8195 327.36 83.9795 327.54C84.1595 327.7 84.4395 327.78 84.8195 327.78H85.6595V330H80.4695V320.16C80.4695 319.16 80.2495 318.43 79.8095 317.97C79.3695 317.51 78.6995 317.28 77.7995 317.28C76.7795 317.28 75.9395 317.58 75.2795 318.18C74.6195 318.76 74.2895 319.57 74.2895 320.61V326.67C74.2895 327.07 74.3595 327.36 74.4995 327.54C74.6595 327.7 74.9195 327.78 75.2795 327.78H76.0895V330H69.2195V327.78ZM94.855 330.45C92.575 330.45 90.745 329.82 89.365 328.56C88.005 327.28 87.325 325.42 87.325 322.98C87.325 320.38 87.955 318.43 89.215 317.13C90.495 315.81 92.305 315.15 94.645 315.15C96.905 315.15 98.615 315.79 99.775 317.07C100.935 318.35 101.515 320.08 101.515 322.26V323.64H90.505C90.505 325.26 90.895 326.46 91.675 327.24C92.475 328 93.545 328.38 94.885 328.38C95.645 328.38 96.285 328.33 96.805 328.23C97.325 328.11 97.795 327.92 98.215 327.66V326.58H101.005V328.68C100.165 329.28 99.255 329.72 98.275 330C97.315 330.3 96.175 330.45 94.855 330.45ZM98.425 321.69C98.425 318.77 97.155 317.31 94.615 317.31C93.275 317.31 92.255 317.7 91.555 318.48C90.855 319.26 90.505 320.33 90.505 321.69H98.425ZM113.985 327.81H114.855C115.255 327.81 115.535 327.72 115.695 327.54C115.875 327.36 115.965 327.07 115.965 326.67V313.89C115.965 313.51 115.875 313.24 115.695 313.08C115.535 312.9 115.255 312.81 114.855 312.81H113.985V310.59H124.065C125.785 310.59 127.105 311.04 128.025 311.94C128.945 312.84 129.405 314.11 129.405 315.75C129.405 316.73 129.175 317.61 128.715 318.39C128.255 319.15 127.585 319.73 126.705 320.13C127.705 320.47 128.455 321.03 128.955 321.81C129.475 322.57 129.735 323.51 129.735 324.63C129.735 326.19 129.275 327.48 128.355 328.5C127.435 329.5 126.165 330 124.545 330H113.985V327.81ZM123.015 319.11C124.035 319.11 124.835 318.83 125.415 318.27C125.995 317.71 126.285 316.92 126.285 315.9C126.285 314.84 126.035 314.06 125.535 313.56C125.055 313.04 124.265 312.78 123.165 312.78H119.145V319.11H123.015ZM123.675 327.81C124.595 327.81 125.315 327.54 125.835 327C126.355 326.44 126.615 325.62 126.615 324.54C126.615 323.42 126.335 322.61 125.775 322.11C125.215 321.61 124.355 321.36 123.195 321.36H119.145V327.81H123.675ZM139.24 330.45C136.96 330.45 135.13 329.82 133.75 328.56C132.39 327.28 131.71 325.42 131.71 322.98C131.71 320.38 132.34 318.43 133.6 317.13C134.88 315.81 136.69 315.15 139.03 315.15C141.29 315.15 143 315.79 144.16 317.07C145.32 318.35 145.9 320.08 145.9 322.26V323.64H134.89C134.89 325.26 135.28 326.46 136.06 327.24C136.86 328 137.93 328.38 139.27 328.38C140.03 328.38 140.67 328.33 141.19 328.23C141.71 328.11 142.18 327.92 142.6 327.66V326.58H145.39V328.68C144.55 329.28 143.64 329.72 142.66 330C141.7 330.3 140.56 330.45 139.24 330.45ZM142.81 321.69C142.81 318.77 141.54 317.31 139 317.31C137.66 317.31 136.64 317.7 135.94 318.48C135.24 319.26 134.89 320.33 134.89 321.69H142.81ZM153.15 330.45C150.73 330.45 148.72 329.87 147.12 328.71V326.37H150.06V327.57C150.88 328.05 151.88 328.29 153.06 328.29C153.96 328.29 154.63 328.15 155.07 327.87C155.53 327.59 155.76 327.13 155.76 326.49C155.76 326.07 155.64 325.73 155.4 325.47C155.18 325.19 154.87 324.96 154.47 324.78C154.07 324.58 153.28 324.24 152.1 323.76C150.92 323.28 150.01 322.87 149.37 322.53C148.75 322.17 148.24 321.72 147.84 321.18C147.46 320.64 147.27 319.96 147.27 319.14C147.27 317.82 147.78 316.83 148.8 316.17C149.82 315.49 151.21 315.15 152.97 315.15C154.09 315.15 155.14 315.3 156.12 315.6C157.1 315.88 157.95 316.29 158.67 316.83V319.08H155.79V317.97C155.07 317.53 154.21 317.31 153.21 317.31C152.31 317.31 151.63 317.45 151.17 317.73C150.73 318.01 150.51 318.48 150.51 319.14C150.51 319.74 150.75 320.21 151.23 320.55C151.71 320.87 152.45 321.21 153.45 321.57C153.73 321.65 154.04 321.76 154.38 321.9C155.42 322.3 156.25 322.67 156.87 323.01C157.49 323.35 158 323.8 158.4 324.36C158.8 324.92 159 325.63 159 326.49C159 327.77 158.51 328.75 157.53 329.43C156.57 330.11 155.11 330.45 153.15 330.45ZM167.588 330.45C165.928 330.45 164.678 330.04 163.838 329.22C162.998 328.4 162.578 327.2 162.578 325.62V317.76H160.238V315.6H162.578V312.36L165.758 311.34V315.6H170.078V317.76H165.758V325.83C165.758 326.71 165.918 327.34 166.238 327.72C166.578 328.1 167.088 328.29 167.768 328.29C168.648 328.29 169.318 328.1 169.778 327.72V326.43H172.508V328.71C171.848 329.27 171.128 329.7 170.348 330C169.568 330.3 168.648 330.45 167.588 330.45ZM184.063 327.81H184.933C185.333 327.81 185.613 327.72 185.773 327.54C185.953 327.36 186.043 327.07 186.043 326.67V313.89C186.043 313.51 185.953 313.24 185.773 313.08C185.613 312.9 185.333 312.81 184.933 312.81H184.063V310.59H198.433V314.46H195.553V313.86C195.553 313.48 195.463 313.21 195.283 313.05C195.103 312.87 194.813 312.78 194.413 312.78H189.223V319.17H194.413V321.39H189.223V326.7C189.223 327.1 189.303 327.39 189.463 327.57C189.643 327.73 189.923 327.81 190.303 327.81H191.203V330H184.063V327.81ZM200.038 310.56H203.428V313.32H200.038V310.56ZM198.148 327.78H199.018C199.418 327.78 199.698 327.69 199.858 327.51C200.038 327.33 200.128 327.04 200.128 326.64V318.93C200.128 318.55 200.038 318.28 199.858 318.12C199.698 317.94 199.418 317.85 199.018 317.85H198.148V315.6H203.338V326.67C203.338 327.05 203.428 327.33 203.608 327.51C203.788 327.69 204.068 327.78 204.448 327.78H205.318V330H198.148V327.78ZM207.003 327.78H207.873C208.273 327.78 208.553 327.69 208.713 327.51C208.893 327.33 208.983 327.04 208.983 326.64V313.47C208.983 313.09 208.893 312.82 208.713 312.66C208.553 312.48 208.273 312.39 207.873 312.39H207.003V310.14H212.193V326.67C212.193 327.05 212.283 327.33 212.463 327.51C212.643 327.69 212.923 327.78 213.303 327.78H214.173V330H207.003V327.78ZM215.85 327.78H216.6C217 327.78 217.28 327.7 217.44 327.54C217.62 327.36 217.71 327.07 217.71 326.67V318.93C217.71 318.55 217.62 318.28 217.44 318.12C217.28 317.94 217 317.85 216.6 317.85H216V315.6H219.75L219.96 317.64C220.5 316.8 221.17 316.18 221.97 315.78C222.79 315.36 223.78 315.15 224.94 315.15C225.82 315.15 226.58 315.35 227.22 315.75C227.86 316.15 228.34 316.72 228.66 317.46C229.16 316.66 229.77 316.08 230.49 315.72C231.23 315.34 232.15 315.15 233.25 315.15C234.89 315.15 236.07 315.56 236.79 316.38C237.53 317.2 237.9 318.43 237.9 320.07V326.67C237.9 327.05 237.99 327.33 238.17 327.51C238.35 327.69 238.63 327.78 239.01 327.78H239.85V330H234.75V320.07C234.75 319.07 234.56 318.36 234.18 317.94C233.8 317.52 233.16 317.31 232.26 317.31C231.34 317.31 230.61 317.57 230.07 318.09C229.55 318.61 229.29 319.37 229.29 320.37V326.67C229.29 327.07 229.36 327.36 229.5 327.54C229.66 327.7 229.93 327.78 230.31 327.78H231.12V330H226.32V320.16C226.32 319.18 226.13 318.46 225.75 318C225.37 317.54 224.77 317.31 223.95 317.31C222.95 317.31 222.18 317.59 221.64 318.15C221.1 318.71 220.83 319.53 220.83 320.61V326.67C220.83 327.07 220.9 327.36 221.04 327.54C221.2 327.7 221.47 327.78 221.85 327.78H222.66V330H215.85V327.78ZM247.574 330.45C245.154 330.45 243.144 329.87 241.544 328.71V326.37H244.484V327.57C245.304 328.05 246.304 328.29 247.484 328.29C248.384 328.29 249.054 328.15 249.494 327.87C249.954 327.59 250.184 327.13 250.184 326.49C250.184 326.07 250.064 325.73 249.824 325.47C249.604 325.19 249.294 324.96 248.894 324.78C248.494 324.58 247.704 324.24 246.524 323.76C245.344 323.28 244.434 322.87 243.794 322.53C243.174 322.17 242.664 321.72 242.264 321.18C241.884 320.64 241.694 319.96 241.694 319.14C241.694 317.82 242.204 316.83 243.224 316.17C244.244 315.49 245.634 315.15 247.394 315.15C248.514 315.15 249.564 315.3 250.544 315.6C251.524 315.88 252.374 316.29 253.094 316.83V319.08H250.214V317.97C249.494 317.53 248.634 317.31 247.634 317.31C246.734 317.31 246.054 317.45 245.594 317.73C245.154 318.01 244.934 318.48 244.934 319.14C244.934 319.74 245.174 320.21 245.654 320.55C246.134 320.87 246.874 321.21 247.874 321.57C248.154 321.65 248.464 321.76 248.804 321.9C249.844 322.3 250.674 322.67 251.294 323.01C251.914 323.35 252.424 323.8 252.824 324.36C253.224 324.92 253.424 325.63 253.424 326.49C253.424 327.77 252.934 328.75 251.954 329.43C250.994 330.11 249.534 330.45 247.574 330.45Z" fill="#02233C"/>
<path d="M29.1967 279.96C29.1397 279.741 29.1019 279.487 29.0831 279.197C29.0634 278.903 29.0858 278.609 29.1504 278.314C29.2376 277.904 29.3491 277.501 29.4847 277.107C29.6194 276.709 29.7672 276.337 29.9279 275.993C30.0877 275.645 30.2563 275.33 30.4338 275.05C30.6103 274.766 30.7882 274.534 30.9675 274.355L30.9633 274.362C31.074 274.244 31.1913 274.121 31.3152 273.992C31.4391 273.863 31.5687 273.741 31.7041 273.625C31.8395 273.509 31.9802 273.406 32.1262 273.315C32.2722 273.225 32.4227 273.16 32.5777 273.119C32.7365 273.078 32.8961 273.071 33.0565 273.098C33.2168 273.125 33.3647 273.181 33.5 273.267C33.6381 273.348 33.7566 273.455 33.8554 273.587C33.9579 273.717 34.0308 273.866 34.074 274.032C34.1045 274.149 34.121 274.244 34.1235 274.316C34.1289 274.383 34.1209 274.438 34.0994 274.48C34.0818 274.521 34.0513 274.551 34.0079 274.57C33.9683 274.588 33.9201 274.605 33.8634 274.62C33.7802 274.641 33.7096 274.641 33.6516 274.62C33.5964 274.594 33.5473 274.56 33.5043 274.519C33.4641 274.473 33.4286 274.422 33.3978 274.365C33.3659 274.305 33.3323 274.253 33.2969 274.21C33.2642 274.162 33.2265 274.125 33.1836 274.1C33.1435 274.07 33.0951 274.062 33.0384 274.077C32.8872 274.116 32.7316 274.193 32.5715 274.307C32.4153 274.421 32.2593 274.558 32.1035 274.72C31.9515 274.88 31.802 275.058 31.655 275.254C31.5108 275.445 31.3752 275.637 31.2481 275.832C31.1211 276.026 31.0048 276.216 30.8995 276.4C30.7979 276.584 30.7112 276.748 30.6396 276.892C30.5384 277.124 30.4515 277.356 30.3788 277.589C30.3051 277.818 30.2499 278.048 30.2131 278.28C30.1754 278.507 30.1605 278.737 30.1683 278.969C30.1751 279.198 30.2089 279.429 30.2698 279.663C30.3169 279.845 30.3828 279.997 30.4673 280.121C30.5555 280.243 30.6427 280.346 30.7287 280.428C30.83 280.523 30.9395 280.579 31.0571 280.597C31.1738 280.611 31.3059 280.599 31.4533 280.561C31.7747 280.477 32.0636 280.37 32.3201 280.239C32.5766 280.108 32.8164 279.959 33.0394 279.792C33.2624 279.625 33.4749 279.44 33.6767 279.239C33.8786 279.037 34.0856 278.824 34.2976 278.599L34.4451 278.561C34.4942 278.548 34.5468 278.549 34.6028 278.562C34.6627 278.575 34.7169 278.597 34.7655 278.629C34.8179 278.66 34.8623 278.699 34.8987 278.746C34.9389 278.792 34.9664 278.843 34.9811 278.9C35.0135 279.025 34.9968 279.162 34.9309 279.313C34.864 279.459 34.7678 279.609 34.6422 279.763C34.5195 279.912 34.3744 280.06 34.2072 280.209C34.0399 280.357 33.8715 280.494 33.7021 280.618C33.5365 280.742 33.3793 280.852 33.2304 280.947C33.0816 281.042 32.9605 281.112 32.8671 281.156C32.7888 281.197 32.7125 281.237 32.638 281.276C32.5663 281.311 32.48 281.352 32.379 281.398C32.2771 281.441 32.1539 281.487 32.0094 281.536C31.8639 281.582 31.6796 281.634 31.4565 281.692C31.3204 281.727 31.1902 281.739 31.066 281.727C30.9408 281.711 30.8255 281.686 30.72 281.653C30.6173 281.615 30.5255 281.573 30.4445 281.525C30.3674 281.476 30.304 281.434 30.2544 281.399C29.9636 281.196 29.7342 280.981 29.5663 280.754C29.3985 280.527 29.2753 280.263 29.1967 279.96ZM36.2902 272.845C36.2681 272.714 36.2469 272.57 36.2265 272.414C36.2062 272.258 36.2001 272.11 36.2083 271.97C36.2165 271.831 36.2438 271.711 36.2903 271.61C36.3395 271.505 36.419 271.438 36.5286 271.409C36.5891 271.393 36.6582 271.387 36.7359 271.392C36.8175 271.395 36.8957 271.409 36.9708 271.433C37.0487 271.454 37.1177 271.486 37.1778 271.531C37.2379 271.576 37.2768 271.632 37.2944 271.701C37.3023 271.731 37.306 271.768 37.3054 271.813C37.3039 271.853 37.3043 271.894 37.3065 271.933L37.3646 277.984C37.3668 278.226 37.376 278.456 37.3922 278.673C37.4074 278.887 37.4227 279.063 37.4382 279.2L37.4736 279.336C37.503 279.45 37.5279 279.576 37.5481 279.716C37.5673 279.853 37.5714 279.985 37.5602 280.113C37.5481 280.237 37.514 280.347 37.4581 280.442C37.4069 280.54 37.3226 280.604 37.2054 280.635C37.1034 280.661 37.0086 280.662 36.9212 280.636C36.8348 280.614 36.7582 280.575 36.6914 280.52C36.6245 280.465 36.57 280.402 36.5276 280.333C36.4843 280.259 36.4538 280.188 36.4362 280.12C36.4204 280.06 36.407 279.985 36.3957 279.895C36.3835 279.801 36.3727 279.705 36.3633 279.606C36.3566 279.503 36.3505 279.402 36.3448 279.302C36.3382 279.199 36.335 279.109 36.3353 279.033L36.2902 272.845ZM39.1617 278.843C39.1614 278.609 39.1632 278.336 39.167 278.025C39.1708 277.713 39.1739 277.383 39.1764 277.035C39.1827 276.687 39.1871 276.33 39.1894 275.967C39.1918 275.603 39.1909 275.25 39.1869 274.908C39.1867 274.892 39.1936 274.864 39.2074 274.824C39.2203 274.78 39.2431 274.736 39.2758 274.691C39.3076 274.642 39.3522 274.597 39.4096 274.553C39.467 274.51 39.5392 274.477 39.6261 274.455C39.6904 274.438 39.7548 274.429 39.8192 274.429C39.8826 274.424 39.9405 274.43 39.9927 274.444C40.0487 274.458 40.0959 274.484 40.1341 274.523C40.1752 274.556 40.203 274.602 40.2178 274.658C40.2207 274.67 40.2242 274.683 40.2281 274.698C40.231 274.709 40.2321 274.721 40.2312 274.733L40.2286 275.376C40.2257 276.095 40.2195 276.817 40.21 277.542C40.2043 278.266 40.2028 278.991 40.2057 279.716C40.204 279.741 40.2 279.772 40.1937 279.81C40.1874 279.848 40.1755 279.888 40.1579 279.929C40.1402 279.969 40.1155 280.006 40.0835 280.039C40.0516 280.071 40.0092 280.094 39.9563 280.108C39.858 280.134 39.7656 280.135 39.6792 280.113C39.5938 280.095 39.5167 280.063 39.4481 280.016C39.3794 279.969 39.3226 279.913 39.2774 279.848C39.2323 279.783 39.2014 279.719 39.1847 279.655C39.1798 279.636 39.1754 279.619 39.1715 279.604C39.1675 279.588 39.1669 279.57 39.1695 279.55L39.1617 278.843ZM39.1174 272.589C39.1157 272.505 39.1247 272.4 39.1443 272.273C39.164 272.147 39.2245 272.023 39.3257 271.899C39.3773 271.85 39.4432 271.8 39.5233 271.751C39.6024 271.698 39.6609 271.667 39.6987 271.657C39.7365 271.647 39.7777 271.651 39.8224 271.667C39.8709 271.683 39.9141 271.702 39.9522 271.725C39.9999 271.753 40.0466 271.785 40.0924 271.821C40.1889 271.804 40.2582 271.823 40.3004 271.876C40.3463 271.929 40.3801 271.997 40.4017 272.08C40.4174 272.141 40.426 272.197 40.4274 272.249C40.4289 272.301 40.4297 272.343 40.43 272.375C40.4279 272.461 40.4036 272.546 40.357 272.63C40.3094 272.711 40.2504 272.787 40.18 272.858C40.1086 272.925 40.031 272.983 39.9471 273.034C39.8633 273.084 39.7873 273.117 39.7193 273.135C39.6323 273.158 39.5603 273.16 39.5033 273.143C39.4501 273.124 39.3748 273.075 39.2774 272.996C39.2211 272.95 39.1852 272.913 39.1698 272.884C39.1572 272.851 39.1479 272.823 39.142 272.801C39.1312 272.759 39.1238 272.723 39.1197 272.691C39.1185 272.655 39.1177 272.621 39.1174 272.589ZM41.8214 276.893C41.8176 276.584 41.8444 276.252 41.9018 275.898C41.963 275.543 42.0555 275.192 42.1793 274.845C42.3021 274.494 42.4577 274.161 42.6462 273.846C42.8375 273.526 43.0638 273.247 43.325 273.01C43.4096 272.931 43.507 272.864 43.6174 272.807C43.7277 272.75 43.8433 272.706 43.9643 272.674C44.0891 272.642 44.2074 272.623 44.3191 272.618C44.4347 272.613 44.5371 272.626 44.6265 272.66C44.7196 272.692 44.7997 272.744 44.8666 272.815C44.9336 272.887 44.9828 272.983 45.0142 273.104C45.0378 273.195 45.0486 273.291 45.0467 273.392C45.0438 273.49 45.0257 273.583 44.9924 273.672C44.9581 273.758 44.9072 273.834 44.8396 273.9C44.772 273.966 44.6852 274.013 44.5794 274.04C44.4962 274.062 44.4148 274.067 44.3351 274.055C44.2592 274.043 44.1842 274.026 44.1101 274.005C44.0701 273.991 44.0331 273.98 43.9989 273.973C43.9638 273.962 43.9234 273.954 43.8779 273.95C43.7444 274.057 43.6243 274.185 43.5176 274.334C43.4138 274.478 43.3209 274.633 43.239 274.8C43.161 274.965 43.0929 275.138 43.0349 275.319C42.9806 275.499 42.9339 275.676 42.8948 275.852C42.8594 276.026 42.833 276.197 42.8156 276.363C42.801 276.524 42.7928 276.671 42.7912 276.805C42.7883 276.903 42.7907 277.013 42.7985 277.136C42.809 277.254 42.8286 277.368 42.857 277.478C42.8767 277.554 42.901 277.624 42.93 277.689C42.9628 277.753 43.0031 277.807 43.0509 277.851C43.0987 277.895 43.1548 277.925 43.2194 277.941C43.284 277.956 43.3578 277.953 43.441 277.932C43.5733 277.897 43.6994 277.846 43.8191 277.779C43.9426 277.711 44.0598 277.634 44.1708 277.548C44.2819 277.463 44.3871 277.371 44.4867 277.273C44.589 277.169 44.6875 277.067 44.7823 276.966C44.8424 276.902 44.9019 276.836 44.961 276.768C45.0201 276.7 45.0768 276.639 45.1313 276.585C45.1857 276.53 45.2365 276.485 45.2835 276.448C45.3334 276.407 45.3791 276.381 45.4207 276.37C45.4774 276.355 45.5342 276.357 45.5912 276.374C45.6473 276.388 45.6841 276.429 45.7018 276.497C45.7145 276.546 45.7174 276.604 45.7105 276.67C45.6958 276.831 45.6584 276.982 45.5981 277.123C45.5378 277.264 45.4632 277.396 45.3743 277.52C45.2882 277.64 45.1902 277.752 45.0804 277.857C44.9742 277.961 44.8667 278.06 44.7576 278.153C44.5556 278.338 44.342 278.495 44.1167 278.622C43.8942 278.744 43.7017 278.827 43.5391 278.869C43.4862 278.882 43.4223 278.893 43.3475 278.9C43.2727 278.908 43.2059 278.907 43.1471 278.898C42.8065 278.845 42.5373 278.725 42.3395 278.539C42.1416 278.352 42.003 278.105 41.9234 277.799C41.889 277.667 41.8627 277.526 41.8442 277.378C41.8286 277.224 41.821 277.063 41.8214 276.893ZM48.9832 274.47C48.9076 274.49 48.8275 274.531 48.7428 274.593C48.6571 274.652 48.5734 274.718 48.4916 274.792C48.4098 274.865 48.3324 274.94 48.2592 275.016C48.1859 275.091 48.1211 275.152 48.0647 275.199L48.0789 277.375C48.0806 277.459 48.049 277.532 47.9842 277.593C47.9194 277.654 47.8549 277.693 47.7906 277.71C47.5864 277.763 47.4362 277.76 47.34 277.7C47.2466 277.635 47.1827 277.537 47.1483 277.405C47.1336 277.348 47.1226 277.29 47.1154 277.232C47.1111 277.168 47.1081 277.102 47.1065 277.034L47.1042 276.932C47.1003 276.824 47.0972 276.687 47.0948 276.523C47.0961 276.357 47.0973 276.183 47.0985 276.001C47.0987 275.815 47.0989 275.63 47.0991 275.444C47.1021 275.253 47.1053 275.079 47.1086 274.921C47.1128 274.766 47.1179 274.537 47.1236 274.233C47.1331 273.928 47.1414 273.587 47.1484 273.209C47.1591 272.831 47.1679 272.438 47.1745 272.028C47.184 271.614 47.1909 271.221 47.195 270.848C47.203 270.475 47.2099 270.144 47.2158 269.856C47.2207 269.564 47.2216 269.35 47.2185 269.214C47.2388 269.152 47.2804 269.095 47.3434 269.042C47.4064 268.989 47.4871 268.95 47.5854 268.925C47.6534 268.907 47.7258 268.898 47.8026 268.899C47.8783 268.895 47.9495 268.905 48.016 268.928C48.0853 268.946 48.1463 268.979 48.1988 269.026C48.2504 269.069 48.2855 269.126 48.3041 269.198C48.3169 269.247 48.3208 269.309 48.3158 269.383C48.2598 270.1 48.212 270.841 48.1726 271.605C48.1322 272.367 48.115 273.132 48.1211 273.901C48.1624 273.858 48.2369 273.772 48.3447 273.643C48.4525 273.514 48.5696 273.367 48.6959 273.201C48.8261 273.034 48.9548 272.861 49.082 272.683C49.2093 272.505 49.3135 272.346 49.3946 272.208C49.4506 272.113 49.5061 272.016 49.5611 271.917C49.6189 271.813 49.6725 271.716 49.7219 271.627C49.7741 271.533 49.8193 271.45 49.8575 271.38C49.8947 271.306 49.924 271.247 49.9454 271.206C49.9956 271.104 50.0555 271.016 50.1249 270.941C50.1971 270.862 50.2767 270.811 50.3637 270.788C50.4469 270.767 50.5259 270.76 50.6008 270.769C50.6758 270.778 50.7432 270.797 50.8032 270.825C50.8621 270.85 50.9117 270.886 50.9519 270.932C50.9912 270.974 51.0167 271.018 51.0285 271.064C51.0432 271.12 51.0457 271.184 51.0359 271.255C51.0261 271.326 51.0102 271.397 50.9881 271.468C50.9698 271.537 50.9467 271.603 50.9189 271.667C50.89 271.727 50.8639 271.774 50.8406 271.809C50.762 271.926 50.6728 272.056 50.5727 272.199C50.4716 272.338 50.3659 272.483 50.2555 272.632C50.144 272.778 50.0293 272.927 49.9113 273.079C49.7962 273.226 49.6838 273.368 49.5742 273.506C49.8467 273.576 50.0876 273.703 50.2968 273.887C50.5087 274.066 50.6954 274.28 50.8569 274.528C51.0173 274.773 51.1533 275.041 51.265 275.331C51.3766 275.62 51.4692 275.907 51.5428 276.191C51.5487 276.213 51.5562 276.25 51.5651 276.3C51.5731 276.346 51.5769 276.392 51.5763 276.436C51.5751 276.509 51.5686 276.577 51.5569 276.641C51.5451 276.705 51.5215 276.761 51.486 276.811C51.4552 276.863 51.4106 276.909 51.3522 276.948C51.2976 276.987 51.2249 277.018 51.1342 277.041C51.0472 277.064 50.9696 277.068 50.9012 277.054C50.8329 277.039 50.7715 277.013 50.7172 276.974C50.6666 276.935 50.624 276.887 50.5894 276.832C50.5548 276.776 50.5296 276.718 50.5139 276.658C50.4648 276.469 50.4086 276.275 50.3452 276.078C50.2808 275.877 50.2071 275.686 50.1239 275.506C50.0408 275.326 49.9474 275.16 49.8437 275.01C49.7428 274.854 49.6294 274.728 49.5034 274.632C49.4128 274.563 49.3308 274.511 49.2576 274.478C49.1881 274.443 49.1118 274.437 49.0286 274.458L48.9832 274.47ZM58.3743 274.78C58.3635 274.738 58.3549 274.682 58.3486 274.611C58.345 274.535 58.3434 274.459 58.3437 274.382C58.3429 274.301 58.3432 274.225 58.3444 274.152C58.3494 274.078 58.3522 274.019 58.3527 273.974L58.692 265.84C58.7041 265.809 58.719 265.781 58.7368 265.756C58.7507 265.732 58.7714 265.711 58.7987 265.692C58.8288 265.668 58.8665 265.65 58.9119 265.638L59.0083 265.613C59.0915 265.591 59.1654 265.588 59.2299 265.604C59.2935 265.616 59.3487 265.642 59.3955 265.682C59.4413 265.719 59.4782 265.767 59.5063 265.829C59.5371 265.885 59.5618 265.95 59.5805 266.021C59.5962 266.082 59.6072 266.148 59.6136 266.219C59.6227 266.285 59.6299 266.352 59.6353 266.419C59.6397 266.482 59.6412 266.542 59.6398 266.599C59.6422 266.655 59.6435 266.699 59.6438 266.731L59.51 271.064L60.0355 270.873C60.6023 270.585 61.1794 270.29 61.7669 269.988C62.3572 269.681 62.9358 269.384 63.5026 269.095C63.5618 269.043 63.6041 268.958 63.6295 268.838C63.655 268.719 63.6702 268.567 63.6751 268.384C63.6839 268.2 63.689 267.987 63.6906 267.745C63.6912 267.498 63.6986 267.224 63.7129 266.922L63.7304 266.499C63.7305 266.298 63.7239 266.093 63.7106 265.887C63.7002 265.676 63.7022 265.482 63.7167 265.304C63.7311 265.127 63.7686 264.976 63.8291 264.851C63.8885 264.723 63.9863 264.641 64.1224 264.606C64.3152 264.556 64.4808 264.579 64.6191 264.676C64.7563 264.77 64.849 264.909 64.8972 265.095C64.9276 265.212 64.9333 265.42 64.9142 265.72C64.899 266.018 64.8767 266.383 64.8475 266.815C64.8366 266.975 64.823 267.14 64.8065 267.31C64.7901 267.479 64.7759 267.642 64.7641 267.799C64.755 267.951 64.7511 268.091 64.7523 268.22C64.7525 268.345 64.7619 268.443 64.7806 268.515C64.7982 268.583 64.8254 268.649 64.862 268.712C64.8975 268.771 64.9252 268.839 64.9448 268.914C64.989 269.084 64.9804 269.238 64.9192 269.375C64.8579 269.512 64.7631 269.66 64.6347 269.818C64.635 269.85 64.6359 269.9 64.6375 269.969C64.6429 270.036 64.6449 270.106 64.6437 270.179L64.6451 270.487C64.6462 270.709 64.6548 270.929 64.671 271.147C64.691 271.363 64.7124 271.578 64.7351 271.79C64.7617 272.001 64.7845 272.213 64.8035 272.426C64.8263 272.638 64.8391 272.85 64.842 273.064C64.8427 273.144 64.8264 273.221 64.7929 273.294C64.7623 273.363 64.7202 273.426 64.6668 273.484C64.6171 273.542 64.5611 273.591 64.499 273.631C64.4368 273.671 64.3755 273.699 64.315 273.715C64.2242 273.739 64.1451 273.737 64.0776 273.71C64.0101 273.683 63.952 273.646 63.9032 273.598C63.8582 273.549 63.8222 273.496 63.7952 273.438C63.7681 273.381 63.7492 273.331 63.7384 273.29C63.7266 273.244 63.7131 273.169 63.6979 273.064C63.6856 272.954 63.6726 272.826 63.6589 272.681C63.6453 272.535 63.6325 272.377 63.6205 272.206C63.6085 272.036 63.596 271.864 63.5831 271.689C63.5548 271.285 63.5284 270.842 63.5041 270.36L63.4644 270.37C63.3661 270.396 63.2632 270.435 63.1557 270.487C63.0472 270.535 62.9184 270.599 62.7695 270.678C62.7035 270.719 62.6036 270.777 62.4698 270.853C62.3397 270.927 62.1903 271.012 62.0216 271.108C61.8529 271.204 61.67 271.308 61.473 271.42C61.2798 271.531 61.0866 271.642 60.8934 271.752L59.4655 272.571C59.4319 272.737 59.4056 272.916 59.3865 273.106C59.3702 273.292 59.3587 273.481 59.3519 273.672C59.3441 273.86 59.3397 274.045 59.3385 274.227C59.3411 274.407 59.3431 274.578 59.3446 274.74C59.344 274.784 59.3312 274.836 59.3062 274.895C59.2849 274.953 59.2551 275.009 59.2168 275.063C59.1822 275.117 59.1419 275.163 59.0958 275.204C59.0536 275.243 59.0097 275.268 58.9644 275.28C58.8812 275.302 58.8063 275.301 58.7398 275.278C58.678 275.258 58.6223 275.222 58.5725 275.17C58.5238 275.122 58.482 275.062 58.4473 274.991C58.4173 274.922 58.3929 274.851 58.3743 274.78ZM66.4021 270.54C66.3599 270.377 66.3675 270.228 66.425 270.092C66.4825 269.956 66.5782 269.85 66.7121 269.775C66.7321 269.681 66.7674 269.553 66.818 269.39C66.8676 269.224 66.9351 269.041 67.0205 268.841C67.1058 268.642 67.2082 268.437 67.3275 268.229C67.4497 268.015 67.5914 267.815 67.7527 267.628C67.9167 267.436 68.1009 267.267 68.3051 267.121C68.5132 266.974 68.7457 266.868 69.0028 266.801C69.2221 266.744 69.4199 266.721 69.5963 266.731C69.7726 266.742 69.9259 266.781 70.0564 266.848C70.1868 266.915 70.2956 267.008 70.3829 267.127C70.4692 267.241 70.532 267.374 70.5713 267.526C70.6047 267.654 70.6196 267.781 70.616 267.907C70.6181 268.133 70.5679 268.344 70.4655 268.54C70.363 268.736 70.2292 268.92 70.064 269.092C69.9017 269.259 69.7155 269.413 69.5055 269.552C69.2992 269.69 69.0877 269.816 68.8708 269.929C68.6577 270.04 68.4492 270.139 68.2453 270.224C68.0405 270.306 67.8625 270.374 67.7114 270.43C67.6951 270.506 67.6874 270.601 67.6885 270.714C67.6923 270.822 67.707 270.925 67.7325 271.023C67.7894 271.243 67.9206 271.39 68.1259 271.466C68.3313 271.542 68.5871 271.54 68.8933 271.46C69.071 271.414 69.2362 271.351 69.389 271.271C69.5408 271.187 69.6806 271.097 69.8086 270.999C69.9393 270.896 70.0597 270.792 70.1696 270.687C70.2785 270.578 70.3765 270.474 70.4637 270.375C70.5763 270.248 70.6852 270.139 70.7905 270.048C70.8985 269.951 70.9998 269.89 71.0944 269.866C71.1889 269.841 71.2557 269.85 71.295 269.892C71.3332 269.931 71.3592 269.977 71.373 270.029C71.3808 270.06 71.3868 270.09 71.3909 270.122C71.3977 270.148 71.4017 270.171 71.4029 270.191C71.4095 270.294 71.3972 270.403 71.366 270.516C71.3349 270.629 71.2851 270.732 71.2168 270.827C70.9041 271.239 70.557 271.565 70.1755 271.805C69.7978 272.045 69.3745 272.225 68.9057 272.347C68.8149 272.371 68.7057 272.393 68.578 272.414C68.4541 272.434 68.3215 272.444 68.1803 272.445C68.0392 272.445 67.896 272.43 67.7507 272.399C67.6055 272.368 67.4681 272.313 67.3385 272.234C67.2127 272.153 67.0975 272.044 66.993 271.906C66.8923 271.766 66.8134 271.587 66.7564 271.368C66.7103 271.19 66.6833 270.985 66.6755 270.753C66.6244 270.758 66.5708 270.746 66.5146 270.716C66.4612 270.682 66.4237 270.623 66.4021 270.54ZM69.5443 268.047C69.547 268.026 69.5463 268.008 69.5424 267.993C69.5385 267.977 69.534 267.96 69.5291 267.942C69.5026 267.839 69.4452 267.774 69.3568 267.744C69.2674 267.711 69.1698 267.708 69.064 267.735C68.8976 267.779 68.7444 267.865 68.6044 267.994C68.4682 268.122 68.3455 268.271 68.2362 268.441C68.1297 268.606 68.0412 268.778 67.9709 268.958C67.8995 269.134 67.8493 269.29 67.8202 269.427C68.0866 269.333 68.3268 269.232 68.5409 269.124C68.754 269.013 68.9339 268.897 69.0806 268.778C69.2301 268.655 69.3436 268.533 69.4212 268.411C69.5015 268.286 69.5425 268.164 69.5443 268.047ZM72.7511 270.604C72.7315 270.326 72.7126 270.021 72.6944 269.686C72.6762 269.352 72.6589 269.013 72.6425 268.671C72.6261 268.328 72.6093 267.991 72.592 267.661C72.5748 267.33 72.555 267.029 72.5326 266.756C72.519 266.719 72.5088 266.687 72.5019 266.661C72.494 266.631 72.4857 266.599 72.4769 266.565C72.4464 266.447 72.4235 266.328 72.4082 266.207C72.3929 266.086 72.3857 265.973 72.3867 265.868C72.3909 265.713 72.4113 265.605 72.4476 265.543C72.4868 265.476 72.5631 265.428 72.6766 265.399C72.7862 265.37 72.879 265.37 72.9551 265.399C73.034 265.423 73.1016 265.466 73.1581 265.528C73.2146 265.59 73.2607 265.667 73.2966 265.758C73.3315 265.846 73.3618 265.939 73.3873 266.037C73.401 266.09 73.4144 266.149 73.4273 266.215C73.4402 266.28 73.4515 266.332 73.4614 266.369C73.5388 266.232 73.6213 266.092 73.7091 265.948C73.7996 265.799 73.8993 265.662 74.008 265.537C74.1196 265.407 74.2412 265.293 74.373 265.194C74.5085 265.094 74.6576 265.023 74.8201 264.981C74.8844 264.965 74.9483 264.954 75.0117 264.95C75.0789 264.944 75.1471 264.943 75.2163 264.945C75.2968 264.944 75.3812 264.951 75.4694 264.964C75.5605 264.973 75.6512 264.995 75.7415 265.033C75.8908 265.095 76.0257 265.187 76.1462 265.309C76.2695 265.426 76.3503 265.559 76.3886 265.706C76.4033 265.763 76.4082 265.828 76.4032 265.902C76.3972 265.972 76.3808 266.041 76.3539 266.108C76.3298 266.171 76.2963 266.228 76.2531 266.28C76.2091 266.328 76.1549 266.36 76.0906 266.377C76.0263 266.393 75.943 266.399 75.8406 266.393C75.741 266.383 75.6541 266.359 75.5799 266.322C75.5475 266.306 75.5108 266.281 75.4698 266.247C75.4325 266.213 75.3953 266.178 75.358 266.143C75.3245 266.107 75.292 266.076 75.2605 266.047C75.2317 266.014 75.2102 265.994 75.196 265.985C75.1761 265.987 75.1548 265.99 75.1321 265.996C75.1084 265.998 75.0871 266.002 75.0682 266.006C74.8754 266.057 74.7048 266.153 74.5564 266.297C74.408 266.44 74.2769 266.604 74.163 266.786C74.0481 266.966 73.9475 267.153 73.8611 267.349C73.7776 267.54 73.7053 267.712 73.6441 267.866C73.6481 268.191 73.6479 268.541 73.6438 268.913C73.6424 269.281 73.6454 269.665 73.6529 270.067L73.6897 270.209C73.7191 270.322 73.7453 270.438 73.7682 270.558C73.7911 270.677 73.7954 270.787 73.7812 270.887C73.7543 270.955 73.7061 271.018 73.6365 271.076C73.5717 271.137 73.4882 271.181 73.3861 271.208C73.2274 271.249 73.095 271.229 72.9891 271.147C72.8822 271.062 72.8106 270.95 72.7743 270.81C72.7576 270.745 72.7498 270.677 72.7511 270.604ZM77.0867 267.765C77.0445 267.602 77.0521 267.453 77.1096 267.317C77.1671 267.181 77.2628 267.075 77.3967 267C77.4166 266.906 77.4519 266.778 77.5026 266.615C77.5522 266.449 77.6197 266.266 77.7051 266.066C77.7904 265.867 77.8928 265.662 78.0121 265.454C78.1343 265.24 78.276 265.04 78.4372 264.853C78.6013 264.661 78.7855 264.492 78.9897 264.346C79.1978 264.199 79.4303 264.093 79.6874 264.026C79.9067 263.969 80.1045 263.946 80.2808 263.957C80.4572 263.967 80.6105 264.006 80.7409 264.073C80.8714 264.14 80.9802 264.233 81.0675 264.352C81.1538 264.466 81.2166 264.599 81.2559 264.751C81.2893 264.879 81.3042 265.006 81.3006 265.132C81.3027 265.358 81.2525 265.569 81.1501 265.765C81.0476 265.961 80.9138 266.145 80.7486 266.317C80.5863 266.484 80.4001 266.638 80.1901 266.777C79.9838 266.915 79.7723 267.041 79.5554 267.154C79.3423 267.265 79.1338 267.364 78.9299 267.449C78.7251 267.531 78.5471 267.599 78.396 267.655C78.3797 267.731 78.372 267.826 78.373 267.939C78.3769 268.047 78.3915 268.15 78.4171 268.248C78.474 268.468 78.6052 268.615 78.8105 268.691C79.0159 268.767 79.2716 268.765 79.5779 268.685C79.7556 268.639 79.9208 268.576 80.0736 268.496C80.2253 268.412 80.3652 268.322 80.4932 268.224C80.6239 268.121 80.7443 268.017 80.8541 267.912C80.9631 267.803 81.0611 267.699 81.1483 267.6C81.2609 267.473 81.3698 267.364 81.475 267.273C81.5831 267.176 81.6844 267.115 81.7789 267.091C81.8735 267.066 81.9403 267.075 81.9796 267.117C82.0178 267.156 82.0438 267.202 82.0576 267.254C82.0654 267.285 82.0714 267.315 82.0755 267.347C82.0823 267.373 82.0863 267.396 82.0875 267.416C82.0941 267.519 82.0818 267.628 82.0506 267.741C82.0194 267.854 81.9697 267.957 81.9014 268.052C81.5887 268.464 81.2416 268.79 80.8601 269.03C80.4824 269.27 80.0591 269.45 79.5903 269.572C79.4995 269.596 79.3903 269.618 79.2626 269.639C79.1386 269.659 79.0061 269.669 78.8649 269.67C78.7238 269.67 78.5806 269.655 78.4353 269.624C78.2901 269.593 78.1527 269.538 78.0231 269.459C77.8973 269.378 77.7821 269.269 77.6776 269.131C77.5768 268.991 77.498 268.812 77.441 268.593C77.3949 268.415 77.3679 268.21 77.3601 267.978C77.309 267.983 77.2553 267.971 77.1992 267.941C77.1458 267.907 77.1083 267.848 77.0867 267.765ZM80.2289 265.272C80.2315 265.251 80.2309 265.233 80.227 265.218C80.2231 265.202 80.2186 265.185 80.2137 265.167C80.1872 265.064 80.1298 264.999 80.0414 264.969C79.952 264.936 79.8544 264.933 79.7485 264.96C79.5822 265.004 79.429 265.09 79.289 265.219C79.1528 265.347 79.0301 265.496 78.9208 265.666C78.8143 265.831 78.7258 266.003 78.6555 266.183C78.5841 266.359 78.5339 266.515 78.5048 266.652C78.7712 266.558 79.0114 266.457 79.2254 266.349C79.4385 266.238 79.6185 266.122 79.7652 266.003C79.9147 265.88 80.0282 265.758 80.1057 265.636C80.1861 265.511 80.2271 265.389 80.2289 265.272ZM84.8696 259.574C84.9108 259.733 84.8957 259.993 84.8241 260.355C84.7708 260.631 84.6904 261.278 84.5832 262.294C84.4787 263.306 84.4172 263.932 84.3985 264.17C84.3798 264.409 84.3815 264.696 84.4035 265.029C84.4182 265.287 84.2799 265.454 83.9888 265.53C83.6145 265.627 83.3793 265.491 83.283 265.12C83.1819 264.731 83.2186 263.924 83.3931 262.7C83.5704 261.472 83.7308 260.621 83.8743 260.148C84.0168 259.671 84.2034 259.402 84.434 259.342C84.6684 259.282 84.8136 259.359 84.8696 259.574ZM84.8176 267.113C84.8853 267.374 84.8441 267.626 84.6938 267.871C84.5425 268.112 84.3383 268.266 84.0812 268.333C83.8846 268.384 83.6987 268.36 83.5234 268.26C83.351 268.156 83.2392 268.005 83.1882 267.808C83.1204 267.547 83.165 267.292 83.3219 267.041C83.4816 266.786 83.6881 266.625 83.9414 266.559C84.138 266.508 84.3187 266.536 84.4836 266.643C84.6523 266.748 84.7636 266.905 84.8176 267.113Z" fill="#02233C"/>
<path d="M90.7797 256.862C98.4893 246.46 98.3784 260.451 97.8629 266.147" stroke="#02233C" stroke-linecap="round" stroke-linejoin="round"/>
<path d="M94.6785 261.536C95.0657 262.776 96.9726 268.818 98.9669 265.886C99.7239 264.774 100.095 262.516 101.109 262.119" stroke="#02233C" stroke-linecap="round" stroke-linejoin="round"/>
</svg>
