<svg width="120" height="120" viewBox="0 0 120 120" fill="none" xmlns="http://www.w3.org/2000/svg">
<rect width="120" height="120" rx="20" fill="#242038"/>
<path d="M12.8359 69.3271C13.2565 67.4899 13.7269 65.6361 14.2471 63.7656C14.7783 61.8952 15.293 60.0413 15.791 58.2041C16.0013 57.4404 16.1839 56.7487 16.3389 56.1289C16.5049 55.498 16.6432 54.9281 16.7539 54.4189C16.8646 53.9098 16.9476 53.4505 17.0029 53.041C17.0583 52.6204 17.0859 52.2331 17.0859 51.8789C17.0859 51.8125 17.0859 51.7406 17.0859 51.6631C17.0859 51.5745 17.0804 51.4694 17.0693 51.3477C16.9587 51.3477 16.7096 51.4085 16.3223 51.5303C15.946 51.652 15.4977 51.8125 14.9775 52.0117C14.4684 52.2109 13.9261 52.4378 13.3506 52.6924C12.7861 52.9359 12.2604 53.1849 11.7734 53.4395C11.3861 53.6387 11.0596 53.8047 10.7939 53.9375C10.5394 54.0703 10.318 54.1755 10.1299 54.2529C9.94173 54.3193 9.77018 54.3691 9.61523 54.4023C9.46029 54.4245 9.2998 54.4355 9.13379 54.4355C8.79069 54.4355 8.49186 54.3027 8.2373 54.0371C7.99382 53.7715 7.87207 53.4284 7.87207 53.0078C7.87207 52.7643 7.89421 52.554 7.93848 52.377C7.99382 52.1888 8.07129 52.0228 8.1709 51.8789C8.28158 51.735 8.42546 51.6022 8.60254 51.4805C8.77962 51.3477 8.99544 51.2148 9.25 51.082C12.0501 49.6211 14.8835 48.5531 17.75 47.8779C20.6165 47.1917 23.4941 46.8486 26.3828 46.8486C26.6152 46.8486 26.8919 46.8542 27.2129 46.8652C27.5339 46.8763 27.8604 46.8984 28.1924 46.9316C28.5355 46.9538 28.8675 46.9925 29.1885 47.0479C29.5094 47.0921 29.7917 47.1475 30.0352 47.2139C30.2897 47.2913 30.5111 47.4518 30.6992 47.6953C30.8874 47.9388 30.9814 48.1989 30.9814 48.4756C30.9814 48.6969 30.9593 48.9128 30.915 49.123C30.8818 49.3333 30.8154 49.516 30.7158 49.6709C30.6162 49.8258 30.4834 49.9531 30.3174 50.0527C30.1624 50.1413 29.9688 50.1855 29.7363 50.1855C29.3379 50.1413 28.8786 50.0859 28.3584 50.0195C27.8493 49.9531 27.3346 49.9199 26.8145 49.9199C25.7741 49.9199 24.7337 49.9476 23.6934 50.0029C22.6641 50.0472 21.6071 50.1911 20.5225 50.4346C20.4671 50.4567 20.4284 50.5176 20.4062 50.6172C20.3952 50.7057 20.3841 50.8219 20.373 50.9658C20.3398 51.5635 20.29 52.0892 20.2236 52.543C20.1572 52.9967 20.0632 53.4505 19.9414 53.9043C19.8307 54.3581 19.6924 54.8506 19.5264 55.3818C19.3604 55.902 19.1667 56.5329 18.9453 57.2744C18.724 58.0049 18.4639 58.8848 18.165 59.9141C17.8773 60.9323 17.5563 62.1663 17.2021 63.6162L16.4053 66.8369C16.2171 67.5785 16.0677 68.248 15.957 68.8457C15.8574 69.4323 15.7689 70.0133 15.6914 70.5889C15.6471 70.777 15.4756 70.9541 15.1768 71.1201C14.889 71.2861 14.5459 71.3691 14.1475 71.3691C13.915 71.3691 13.7048 71.3083 13.5166 71.1865C13.3285 71.0537 13.1735 70.8877 13.0518 70.6885C12.93 70.4893 12.847 70.2734 12.8027 70.041C12.7585 69.7975 12.7695 69.5596 12.8359 69.3271ZM27.7607 63.5498C27.96 62.7197 28.2477 61.873 28.624 61.0098C29.0003 60.1354 29.443 59.2611 29.9521 58.3867C30.4613 57.5124 31.0257 56.6546 31.6455 55.8135C32.2764 54.9613 32.9404 54.1423 33.6377 53.3564C34.346 52.5596 35.071 51.8125 35.8125 51.1152C36.5651 50.4069 37.3177 49.7594 38.0703 49.1729C38.4245 48.9294 38.751 48.7689 39.0498 48.6914C39.3486 48.6139 39.6641 48.5752 39.9961 48.5752C40.3503 48.5752 40.6657 48.6305 40.9424 48.7412C41.2191 48.8408 41.4958 49.029 41.7725 49.3057C41.861 49.4053 41.9551 49.4938 42.0547 49.5713C42.1543 49.6488 42.2484 49.6875 42.3369 49.6875C42.359 49.6875 42.3867 49.6654 42.4199 49.6211C42.4531 49.5658 42.4863 49.5049 42.5195 49.4385C42.5638 49.3721 42.6136 49.3057 42.6689 49.2393C42.7243 49.1618 42.7907 49.1064 42.8682 49.0732C43.0563 48.9847 43.2777 48.9294 43.5322 48.9072C43.7979 48.874 44.0635 48.8574 44.3291 48.8574C44.8271 48.8574 45.3086 48.9515 45.7734 49.1396C46.2383 49.3167 46.6478 49.5713 47.002 49.9033C47.8431 50.6891 48.4795 51.6299 48.9111 52.7256C49.3538 53.8213 49.5752 55 49.5752 56.2617C49.5752 57.3906 49.4092 58.6081 49.0771 59.9141C48.7894 61.0651 48.3743 62.1829 47.832 63.2676C47.3008 64.3522 46.6699 65.3704 45.9395 66.3223C45.2201 67.2741 44.4121 68.1429 43.5156 68.9287C42.6302 69.7145 41.6839 70.3896 40.6768 70.9541C39.6696 71.5186 38.6182 71.9557 37.5225 72.2656C36.4268 72.5866 35.3145 72.7471 34.1855 72.7471C33.1341 72.7471 32.1878 72.5866 31.3467 72.2656C30.5166 71.9447 29.8083 71.4909 29.2217 70.9043C28.6462 70.3177 28.2035 69.6204 27.8936 68.8125C27.5947 68.0046 27.4453 67.1081 27.4453 66.123C27.4453 65.7025 27.4674 65.2819 27.5117 64.8613C27.5671 64.4297 27.6501 63.9925 27.7607 63.5498ZM30.5664 64.6621C30.4447 65.2155 30.3838 65.7135 30.3838 66.1562C30.3838 66.776 30.4889 67.3239 30.6992 67.7998C30.9206 68.2646 31.2249 68.6576 31.6123 68.9785C32.0107 69.2884 32.4811 69.5264 33.0234 69.6924C33.5768 69.8473 34.18 69.9248 34.833 69.9248C35.6077 69.9248 36.3936 69.8031 37.1904 69.5596C37.9984 69.3161 38.7842 68.9619 39.5479 68.4971C40.3115 68.0322 41.0475 67.4733 41.7559 66.8203C42.4642 66.1673 43.1172 65.4258 43.7148 64.5957C44.3236 63.7656 44.8604 62.8636 45.3252 61.8896C45.8011 60.9157 46.1829 59.8809 46.4707 58.7852C46.5814 58.3867 46.6589 57.9717 46.7031 57.54C46.7585 57.1084 46.7861 56.6934 46.7861 56.2949C46.7861 55.653 46.7142 55.0387 46.5703 54.4521C46.4264 53.8656 46.1885 53.3454 45.8564 52.8916C45.5244 52.4378 45.0872 52.0781 44.5449 51.8125C44.0026 51.5358 43.3385 51.3975 42.5527 51.3975C42.4421 51.3975 42.3535 51.4473 42.2871 51.5469C42.2318 51.6354 42.1709 51.7516 42.1045 51.8955C42.0492 52.0173 41.9827 52.1445 41.9053 52.2773C41.8389 52.4102 41.7448 52.5319 41.623 52.6426C41.5124 52.7422 41.3685 52.8252 41.1914 52.8916C41.0254 52.958 40.8151 52.9912 40.5605 52.9912C40.3724 52.9912 40.2064 52.9525 40.0625 52.875C39.9186 52.7865 39.7747 52.6702 39.6309 52.5264C39.5645 52.46 39.5091 52.4102 39.4648 52.377C39.4206 52.3327 39.3708 52.3105 39.3154 52.3105C39.2158 52.3105 39.083 52.3548 38.917 52.4434C38.762 52.5319 38.596 52.637 38.4189 52.7588C38.2529 52.8805 38.0869 53.0078 37.9209 53.1406C37.766 53.2734 37.6442 53.3896 37.5557 53.4893C36.8031 54.264 36.0505 55.1107 35.2979 56.0293C34.5563 56.9368 33.8701 57.8776 33.2393 58.8516C32.6084 59.8255 32.055 60.8105 31.5791 61.8066C31.1143 62.7917 30.7767 63.7435 30.5664 64.6621ZM51.418 71.2197C51.4622 71.0205 51.5231 70.8324 51.6006 70.6553C51.6891 70.4782 51.7832 70.279 51.8828 70.0576C51.9824 69.8363 52.0876 69.5762 52.1982 69.2773C52.3089 68.9674 52.4196 68.5856 52.5303 68.1318L53.1777 65.4756C53.3327 64.8337 53.4932 64.1807 53.6592 63.5166C53.8252 62.8415 54.0189 62.0833 54.2402 61.2422C54.4173 60.5671 54.6276 59.8643 54.8711 59.1338C55.1257 58.3923 55.3857 57.6286 55.6514 56.8428C55.9281 56.057 56.2048 55.249 56.4814 54.4189C56.7581 53.5889 57.0072 52.7311 57.2285 51.8457C57.2396 51.8125 57.2451 51.7682 57.2451 51.7129C57.2451 51.6243 57.2174 51.569 57.1621 51.5469C57.1068 51.5247 57.0348 51.5137 56.9463 51.5137C56.6696 51.5137 56.4372 51.4749 56.249 51.3975C56.0719 51.3089 55.9281 51.1982 55.8174 51.0654C55.7178 50.9326 55.6458 50.7832 55.6016 50.6172C55.5573 50.4401 55.5352 50.2575 55.5352 50.0693C55.5352 49.5824 55.5905 49.195 55.7012 48.9072C55.8229 48.6084 55.9723 48.3815 56.1494 48.2266C56.3376 48.0605 56.5368 47.9443 56.7471 47.8779C56.9684 47.8005 57.1787 47.7396 57.3779 47.6953C57.5882 47.651 57.7708 47.6068 57.9258 47.5625C58.0807 47.5072 58.1914 47.4131 58.2578 47.2803C58.3685 47.0479 58.4681 46.8044 58.5566 46.5498C58.6562 46.2842 58.778 46.0407 58.9219 45.8193C59.0658 45.598 59.2428 45.4154 59.4531 45.2715C59.6634 45.1276 59.9401 45.0557 60.2832 45.0557C60.5267 45.0557 60.7425 45.1221 60.9307 45.2549C61.1188 45.3877 61.2793 45.5537 61.4121 45.7529C61.556 45.9521 61.6777 46.168 61.7773 46.4004C61.877 46.6217 61.9655 46.8265 62.043 47.0146C63.1829 47.0479 64.168 47.1143 64.998 47.2139C65.8392 47.3135 66.4701 47.402 66.8906 47.4795C67.7207 47.6344 68.5508 47.8669 69.3809 48.1768C70.222 48.4867 70.9746 48.8906 71.6387 49.3887C72.3138 49.8757 72.8617 50.4567 73.2822 51.1318C73.7139 51.7959 73.9297 52.5596 73.9297 53.4229C73.9297 53.8656 73.8799 54.3249 73.7803 54.8008L73.6641 55.3818C73.5755 55.8467 73.3874 56.2783 73.0996 56.6768C72.8229 57.0752 72.5075 57.4349 72.1533 57.7559C71.1683 58.6634 70.0892 59.4271 68.916 60.0469C67.7428 60.6556 66.5199 61.1702 65.2471 61.5908C63.9743 62.0114 62.6738 62.3656 61.3457 62.6533C60.0176 62.9411 58.7061 63.2122 57.4111 63.4668L56.9463 63.5332C56.6917 63.5664 56.5423 63.6605 56.498 63.8154C56.2767 64.5791 56.0996 65.2487 55.9668 65.8242C55.8451 66.3997 55.7288 66.9531 55.6182 67.4844C55.5075 68.0046 55.3968 68.5303 55.2861 69.0615C55.1755 69.5817 55.0371 70.1628 54.8711 70.8047C54.8158 71.015 54.7161 71.264 54.5723 71.5518C54.4284 71.8395 54.2568 72.1107 54.0576 72.3652C53.8584 72.6198 53.626 72.8356 53.3604 73.0127C53.1058 73.2008 52.8346 73.2949 52.5469 73.2949C52.3477 73.2949 52.1761 73.2396 52.0322 73.1289C51.8883 73.0182 51.7666 72.8743 51.667 72.6973C51.5785 72.5312 51.5065 72.3486 51.4512 72.1494C51.4069 71.9502 51.3848 71.762 51.3848 71.585C51.3848 71.5186 51.3848 71.4577 51.3848 71.4023C51.3848 71.3359 51.3958 71.2751 51.418 71.2197ZM58.0088 58.9512C57.9867 59.0286 57.9535 59.1283 57.9092 59.25C57.876 59.3607 57.8428 59.4824 57.8096 59.6152C57.7764 59.737 57.7487 59.8532 57.7266 59.9639C57.7044 60.0635 57.6934 60.1354 57.6934 60.1797C57.6934 60.235 57.6989 60.2848 57.71 60.3291C57.7321 60.3623 57.7708 60.3789 57.8262 60.3789C57.8594 60.3789 57.9645 60.3678 58.1416 60.3457C58.3187 60.3125 58.529 60.2738 58.7725 60.2295C59.027 60.1852 59.2982 60.1354 59.5859 60.0801C59.8737 60.0247 60.1504 59.9694 60.416 59.9141C61.1354 59.7591 61.9046 59.5654 62.7236 59.333C63.5426 59.0895 64.3561 58.8184 65.1641 58.5195C65.9831 58.2207 66.7633 57.8997 67.5049 57.5566C68.2464 57.2135 68.9049 56.8483 69.4805 56.4609C70.0892 56.0514 70.5762 55.6419 70.9414 55.2324C71.3066 54.8229 71.4893 54.3857 71.4893 53.9209C71.4893 53.6442 71.4505 53.4007 71.373 53.1904C71.3066 52.9691 71.2292 52.7699 71.1406 52.5928C70.8086 52.0505 70.3936 51.6243 69.8955 51.3145C69.3975 51.0046 68.8551 50.7721 68.2686 50.6172C67.682 50.4622 67.0677 50.3626 66.4258 50.3184C65.7839 50.2741 65.153 50.252 64.5332 50.252C64.3672 50.252 64.1126 50.263 63.7695 50.2852C63.4375 50.3073 63.0833 50.335 62.707 50.3682C62.3418 50.4014 61.9987 50.4456 61.6777 50.501C61.3678 50.5452 61.1576 50.6006 61.0469 50.667C60.9915 50.7002 60.9417 50.7555 60.8975 50.833C60.8643 50.9105 60.8366 50.9769 60.8145 51.0322C60.7259 51.2536 60.6042 51.5635 60.4492 51.9619C60.2943 52.3493 60.1283 52.7865 59.9512 53.2734C59.7741 53.7604 59.5859 54.2751 59.3867 54.8174C59.1986 55.3597 59.016 55.891 58.8389 56.4111C58.6618 56.9202 58.4958 57.4017 58.3408 57.8555C58.1969 58.2982 58.0863 58.6634 58.0088 58.9512ZM95.5449 57.2744C97.0723 56.5771 98.6937 56.2285 100.409 56.2285C102.689 56.2285 104.532 56.9147 105.938 58.2871C107.354 59.6595 108.062 61.2477 108.062 63.0518C108.062 65.6969 107.055 67.8717 105.041 69.5762C103.038 71.2806 100.326 72.1328 96.9062 72.1328C94.5931 72.1328 92.6286 71.5628 91.0127 70.4229C89.4079 69.2829 88.6055 68.1318 88.6055 66.9697C88.6055 66.4717 88.7438 66.029 89.0205 65.6416C89.2972 65.2542 89.6348 65.0605 90.0332 65.0605C90.8522 65.0605 91.3392 65.2764 91.4941 65.708C92.446 68.0654 94.4769 69.2441 97.5869 69.2441C99.7119 69.2441 101.45 68.6299 102.8 67.4014C104.15 66.1618 104.825 64.8171 104.825 63.3672C104.825 62.0944 104.416 61.0706 103.597 60.2959C102.789 59.5101 101.499 59.1172 99.7285 59.1172C98.832 59.1172 97.6976 59.333 96.3252 59.7646C95.2074 60.1188 94.3441 60.2959 93.7354 60.2959C93.3701 60.2959 93.0492 60.1576 92.7725 59.8809C92.5068 59.6042 92.374 59.2666 92.374 58.8682C92.374 58.2152 92.6452 56.9977 93.1875 55.2158C93.7409 53.4229 94.2279 52.1003 94.6484 51.248C95.0801 50.3958 95.5007 49.7484 95.9102 49.3057C96.3307 48.863 96.7015 48.5973 97.0225 48.5088C97.3434 48.4092 98.9704 48.2598 101.903 48.0605C104.847 47.8613 107.443 47.7617 109.689 47.7617C110.088 47.7617 110.387 47.8392 110.586 47.9941C110.785 48.138 110.885 48.4424 110.885 48.9072C110.885 49.4717 110.708 49.9255 110.354 50.2686C109.999 50.6117 109.529 50.7832 108.942 50.7832C104.737 50.7832 101.007 50.9326 97.7529 51.2314C96.8786 53.0355 96.1426 55.0498 95.5449 57.2744Z" fill="white"/>
</svg>
